{"title":"Highway (2014) - Hindi Movie Official Trailer - Alia Bhatt, Rand","uid":9360199,"size":53708741,"categoryP":"video","categoryS":"movie_clips","magnet":"?xt=urn:btih:ebcfc2de8e7157df1bedacdd3c49919cdeea496e&amp;dn=Highway+%282014%29+-+Hindi+Movie+Official+Trailer+-+Alia+Bhatt%2C+Rand&amp;tr=udp%3A%2F%2Ftracker.openbittorrent.com%3A80&amp;tr=udp%3A%2F%2Fopen.demonii.com%3A1337&amp;tr=udp%3A%2F%2Ftracker.coppersurfer.tk%3A6969&amp;tr=udp%3A%2F%2Fexodus.desync.com%3A6969","seeders":0,"leechers":0,"uploader":"Palash995","files":1,"time":1387299208,"description":"[center][b][size=200][color=red]Without Any reason..Don't Dislike the torrent.....please check and give your feedback[/color][/size]\n\n[img]http://i843.photobucket.com/albums/zz358/0Krish0/qiWyCf1pvj_zps682a8ccb.png[/img]\n\n[size=100][color=red]Highway (2014) Official Trailer Alia Bhatt, Randeep Hooda HD 1080p[/color][/size]\n\n\n\nSajid Nadiadwala presents the much awaited film HIGHWAY - Starring Alia Bhatt &amp; Randeep Hooda, Directed by Imtiaz Ali and Music by A.R. Rahman. The film releases in cinemas on 21st February 2014.\n\nScreenshots:-\n\n[img]http://img440.imageshack.us/img440/6233/72l4.jpg[/img]\n\n\n[img]http://img826.imageshack.us/img826/949/xeve.jpg[/img]\n\n[img]http://img59.imageshack.us/img59/3932/icbr.jpg[/img]\n\n[img]http://img833.imageshack.us/img833/3050/1nmn.jpg[/img]\n\nMedia Info:-\n\nGeneral\nComplete name                            : Highway (2014) - Hindi Movie Official Trailer - Alia Bhatt, Randeep Hooda - HD 1080p {DAKU RG} {GreatPalash}.mp4\nFormat                                   : MPEG-4\nFormat profile                           : Base Media\nCodec ID                                 : isom\nFile size                                : 51.2 MiB\nDuration                                 : 2mn 19s\nOverall bit rate mode                    : Variable\nOverall bit rate                         : 3 075 Kbps\nWriting application                      : Lavf53.31.100\n\nVideo\nID                                       : 1\nFormat                                   : AVC\nFormat/Info                              : Advanced Video Codec\nFormat profile                           : &lt;a class=&quot;__cf_email__&quot; href=&quot;/cdn-cgi/l/email-protection&quot; data-cfemail=&quot;2d65444a456d6119031c&quot;&gt;[email&amp;#160;protected]&lt;/a&gt;&lt;script data-cfhash='f9e31' type=&quot;text/javascript&quot;&gt;\n/* &lt;![CDATA[ */!function(){try{var t=&quot;currentScript&quot;in document?document.currentScript:function(){for(var t=document.getElementsByTagName(&quot;script&quot;),e=t.length;e--;)if(t[e].getAttribute(&quot;data-cfhash&quot;))return t[e]}();if(t&amp;&amp;t.previousSibling){var e,r,n,i,c=t.previousSibling,a=c.getAttribute(&quot;data-cfemail&quot;);if(a){for(e=&quot;&quot;,r=parseInt(a.substr(0,2),16),n=2;a.length-n;n+=2)i=parseInt(a.substr(n,2),16)^r,e+=String.fromCharCode(i);e=document.createTextNode(e),c.parentNode.replaceChild(e,c)}t.parentNode.removeChild(t);}}catch(u){}}()/* ]]&gt; */&lt;/script&gt;\nFormat settings, CABAC                   : Yes\nFormat settings, ReFrames                : 3 frames\nCodec ID                                 : avc1\nCodec ID/Info                            : Advanced Video Coding\nDuration                                 : 2mn 19s\nBit rate mode                            : Variable\nBit rate                                 : 2 943 Kbps\nMaximum bit rate                         : 19.2 Mbps\nWidth                                    : 1 920 pixels\nHeight                                   : 1 080 pixels\nDisplay aspect ratio                     : 16:9\nFrame rate mode                          : Constant\nFrame rate                               : 24.000 fps\nStandard                                 : NTSC\nColor space                              : YUV\nChroma subsampling                       : 4:2:0\nBit depth                                : 8 bits\nScan type                                : Progressive\nBits/(Pixel*Frame)                       : 0.059\nStream size                              : 49.0 MiB (96%)\nColor primaries                          : BT.709\nTransfer characteristics                 : BT.709\nMatrix coefficients                      : BT.709\n\nAudio\nID                                       : 2\nFormat                                   : AAC\nFormat/Info                              : Advanced Audio Codec\nFormat profile                           : LC\nCodec ID                                 : 40\nDuration                                 : 2mn 19s\nBit rate mode                            : Constant\nBit rate                                 : 126 Kbps\nChannel(s)                               : 2 channels\nChannel positions                        : Front: L R\nSampling rate                            : 44.1 KHz\nCompression mode                         : Lossy\nStream size                              : 2.09 MiB (4%)\n\n[IMG]http://imageshack.us/a/img89/4822/zka.gif[/IMG]\n\n[IMG]http://imageshack.us/a/img200/185/tj8.gif[/IMG]\n\n[IMG]http://imageshack.us/a/img593/9603/ua8.gif[/IMG]\n\n[IMG]http://imageshack.us/a/img707/5608/ysmp.png[/IMG][/b][/center]","torrent":{"xt":"urn:btih:ebcfc2de8e7157df1bedacdd3c49919cdeea496e","amp;dn":"Highway+%282014%29+-+Hindi+Movie+Official+Trailer+-+Alia+Bhatt%2C+Rand","amp;tr":["udp%3A%2F%2Ftracker.openbittorrent.com%3A80","udp%3A%2F%2Fopen.demonii.com%3A1337","udp%3A%2F%2Ftracker.coppersurfer.tk%3A6969","udp%3A%2F%2Fexodus.desync.com%3A6969"],"infoHash":"ebcfc2de8e7157df1bedacdd3c49919cdeea496e","infoHashBuffer":{"type":"Buffer","data":[235,207,194,222,142,113,87,223,27,237,172,221,60,73,145,156,222,234,73,110]},"announce":[],"urlList":[]}}